<svg width="36" height="35" viewBox="0 0 36 35" fill="none" xmlns="http://www.w3.org/2000/svg">
<circle cx="18" cy="17.501" r="17.5" fill="#00535E"/>
<g filter="url(#filter0_d_683_61709)">
<path fill-rule="evenodd" clip-rule="evenodd" d="M20.2553 16.5277C21.3 20.7474 23.4146 21.6528 23.4146 21.6528C23.4146 21.6528 19.8096 20.8418 17.4264 17.8363C15.976 16.0071 14.5832 12.5296 14.5832 12.5296L19.9248 11.0649C19.9248 11.0649 19.6478 14.0744 20.2553 16.5277ZM15.3217 23.5205C20.37 24.714 24.9279 22.4893 24.9279 22.4893C24.9279 22.4893 21.9014 23.3302 17.2979 19.6744C14.6204 17.5494 12.4414 14.0613 12.4414 14.0613L7.88184 20.2362C7.88184 20.2362 12.2503 22.792 15.3217 23.5205ZM22.8976 20.2973C22.8976 20.2973 22.2136 18.8729 23.5234 16.2473C24.2849 14.7207 25.7398 13.3136 25.7398 13.3136L22.38 11.6254C22.38 11.6254 21.5719 14.0322 21.5117 15.6249C21.414 18.2428 22.8976 20.2973 22.8976 20.2973ZM25.2055 17.5881C23.6147 18.1167 23.323 18.9873 23.323 18.9873C23.323 18.9873 23.5392 17.5216 24.6302 16.4891C25.2947 15.8607 26.5927 15.2114 26.5927 15.2114L27.294 17.314C27.294 17.314 26.1317 17.2811 25.2055 17.5881Z" fill="white"/>
</g>
<defs>
<filter id="filter0_d_683_61709" x="2.30286" y="6.88071" width="33.3595" height="26.755" filterUnits="userSpaceOnUse" color-interpolation-filters="sRGB">
<feFlood flood-opacity="0" result="BackgroundImageFix"/>
<feColorMatrix in="SourceAlpha" type="matrix" values="0 0 0 0 0 0 0 0 0 0 0 0 0 0 0 0 0 0 127 0" result="hardAlpha"/>
<feOffset dx="1.39474" dy="2.78949"/>
<feGaussianBlur stdDeviation="3.48686"/>
<feColorMatrix type="matrix" values="0 0 0 0 0 0 0 0 0 0 0 0 0 0 0 0 0 0 0.1 0"/>
<feBlend mode="normal" in2="BackgroundImageFix" result="effect1_dropShadow_683_61709"/>
<feBlend mode="normal" in="SourceGraphic" in2="effect1_dropShadow_683_61709" result="shape"/>
</filter>
</defs>
</svg>
