<svg width="18" height="18" viewBox="0 0 18 18" fill="none" xmlns="http://www.w3.org/2000/svg">
<g id="input-prefix" clip-path="url(#clip0_3352_368)">
<path id="Vector" d="M13.2098 11.6367C14.2991 10.1503 14.787 8.3073 14.5759 6.47654C14.3647 4.64578 13.4701 2.96225 12.071 1.76277C10.6719 0.563283 8.8715 -0.0636991 7.02997 0.00725815C5.18845 0.0782154 3.44162 0.841879 2.13896 2.14547C0.836304 3.44906 0.0738903 5.19643 0.00425079 7.03801C-0.0653888 8.87959 0.562882 10.6796 1.76337 12.0778C2.96385 13.476 4.64802 14.3694 6.47893 14.5793C8.30984 14.7891 10.1525 14.2999 11.6382 13.2095H11.637C11.6708 13.2545 11.7068 13.2972 11.7473 13.3389L16.0785 17.6701C16.2895 17.8812 16.5756 17.9999 16.8741 18C17.1725 18.0001 17.4588 17.8816 17.6698 17.6707C17.8809 17.4597 17.9996 17.1736 17.9997 16.8751C17.9998 16.5767 17.8814 16.2905 17.6704 16.0794L13.3392 11.7481C13.2989 11.7074 13.2557 11.6698 13.2098 11.6356V11.6367ZM13.5 7.31225C13.5 8.1248 13.34 8.9294 13.029 9.6801C12.7181 10.4308 12.2623 11.1129 11.6878 11.6875C11.1132 12.262 10.4311 12.7178 9.68039 13.0288C8.92969 13.3397 8.12509 13.4997 7.31253 13.4997C6.49998 13.4997 5.69538 13.3397 4.94468 13.0288C4.19398 12.7178 3.51187 12.262 2.93731 11.6875C2.36275 11.1129 1.90698 10.4308 1.59603 9.6801C1.28508 8.9294 1.12503 8.1248 1.12503 7.31225C1.12503 5.67122 1.77693 4.0974 2.93731 2.93702C4.09769 1.77664 5.67151 1.12475 7.31253 1.12475C8.95356 1.12475 10.5274 1.77664 11.6878 2.93702C12.8481 4.0974 13.5 5.67122 13.5 7.31225Z" fill="#6C757D"/>
</g>
<defs>
<clipPath id="clip0_3352_368">
<rect width="18" height="18" fill="white"/>
</clipPath>
</defs>
</svg>
